<svg width="793" height="599" viewBox="0 0 793 599" fill="none" xmlns="http://www.w3.org/2000/svg">
<g clip-path="url(#clip0_169_2)">
<path d="M516.399 245.733C514.668 245.982 512.904 245.85 511.23 245.344C509.557 244.839 508.014 243.972 506.711 242.806C505.408 241.64 504.377 240.203 503.689 238.595C503.002 236.988 502.675 235.249 502.732 233.501L463.054 218.254L481.019 205.403L515.943 221.852C518.874 222.143 521.595 223.499 523.593 225.662C525.59 227.826 526.724 230.647 526.78 233.591C526.836 236.535 525.81 239.397 523.897 241.635C521.983 243.873 519.315 245.331 516.398 245.733L516.399 245.733Z" fill="#FFB7B7"/>
<path d="M493.726 234.794L499.921 212.942L499.616 212.734L441.586 173.314L391.423 122.981L362.202 134.656L364.121 143.905L364.246 144.018L430.941 203.756L431.003 203.786L493.726 234.794Z" fill="#E6E7E8"/>
<path d="M434.278 284.709L344.469 272.12L352.374 217.013H418.492L434.278 284.709Z" fill="#FFB6B6"/>
<path d="M281.679 554.553L300.102 558.834L325.381 489.813L298.192 483.495L281.679 554.553Z" fill="#FFB6B6"/>
<path d="M264.538 584.213L277.749 587.283L283.006 575.358L286.147 589.235L321.187 597.378C322.867 597.768 324.627 597.611 326.211 596.93C327.796 596.249 329.121 595.08 329.993 593.592C330.866 592.105 331.24 590.378 331.061 588.663C330.882 586.948 330.16 585.335 329 584.059L305.509 558.231L308.439 545.621L278.599 540.538L264.538 584.213Z" fill="#2F2E41"/>
<path d="M395.352 564.819H414.265L423.266 491.867H395.352V564.819Z" fill="#FFB6B6"/>
<path d="M385.369 597.589H398.933L401.354 584.784L407.554 597.589H443.528C445.252 597.589 446.932 597.038 448.321 596.016C449.71 594.995 450.736 593.555 451.249 591.909C451.762 590.263 451.735 588.496 451.173 586.866C450.611 585.236 449.542 583.828 448.123 582.848L419.396 563.008V550.062L389.179 551.865L385.369 597.589Z" fill="#2F2E41"/>
<path d="M343.334 262.77L431.163 255.783C457.08 316.325 440.601 412.974 420.683 521.773L392.434 525.426L390.243 350.598L319.425 513.24L289.983 511.735L343.334 262.77Z" fill="#2F2E41"/>
<path d="M394.458 103.344V73.6305C394.46 68.4001 393.433 63.2205 391.433 58.3875C389.433 53.5545 386.501 49.1628 382.803 45.4635C379.106 41.7641 374.715 38.8295 369.883 36.8273C365.051 34.8251 359.872 33.7946 354.642 33.7946C349.412 33.7946 344.232 34.8251 339.4 36.8273C334.568 38.8295 330.178 41.7641 326.481 45.4635C322.783 49.1628 319.851 53.5545 317.851 58.3875C315.851 63.2205 314.823 68.4001 314.826 73.6305C307.808 88.2538 312.199 95.2063 314.826 103.344C314.828 104.761 315.392 106.12 316.394 107.122C317.397 108.124 318.755 108.688 320.172 108.69H389.109C390.527 108.689 391.886 108.125 392.889 107.123C393.891 106.121 394.455 104.762 394.458 103.344Z" fill="#2F2E41"/>
<path d="M364.468 108.242C380.59 108.242 393.66 95.1726 393.66 79.0503C393.66 62.928 380.59 49.8584 364.468 49.8584C348.346 49.8584 335.276 62.928 335.276 79.0503C335.276 95.1726 348.346 108.242 364.468 108.242Z" fill="#FFB7B7"/>
<path d="M403.877 76.0069C403.868 67.6565 400.546 59.6509 394.642 53.7463C388.737 47.8418 380.731 44.5204 372.381 44.511H366.438C358.088 44.5205 350.082 47.8418 344.178 53.7464C338.273 59.6509 334.952 67.6565 334.942 76.0069V76.6014C339.393 79.6442 343.618 80.0892 347.502 76.6014L351.785 64.6071L352.641 76.6013H359.133L361.297 70.5501L361.73 76.6014C370.498 84.0686 387.078 80.4902 403.877 76.6014L403.877 76.0069Z" fill="#2F2E41"/>
<path d="M347.446 233.119L421.771 230.291L425.925 181.668C429.129 172.768 429.181 165.12 426.079 158.955C423.411 153.887 418.929 150.012 413.528 148.106L397.264 128.463C395.172 125.938 392.545 123.91 389.574 122.525C386.602 121.139 383.359 120.431 380.081 120.452L337.821 120.741C336.803 120.128 330.625 116.988 318.439 122.268C305.223 127.996 308.292 147.896 308.325 148.096L308.356 148.283L308.501 148.41L336.608 172.086L347.446 233.119Z" fill="#E6E7E8"/>
<path d="M1.247 598.836H747.528C747.859 598.836 748.176 598.705 748.41 598.471C748.644 598.237 748.775 597.92 748.775 597.589C748.775 597.259 748.644 596.941 748.41 596.708C748.176 596.474 747.859 596.342 747.528 596.342H1.247C0.916277 596.342 0.5991 596.474 0.365242 596.708C0.131384 596.941 -7.62939e-06 597.259 -7.62939e-06 597.589C-7.62939e-06 597.92 0.131384 598.237 0.365242 598.471C0.5991 598.705 0.916277 598.836 1.247 598.836Z" fill="#CCCCCC"/>
<path d="M544.626 303.695C544.57 332.021 533.92 359.302 514.77 380.174C495.62 401.046 469.355 414 441.138 416.488C412.921 418.977 384.794 410.82 362.287 393.622C339.779 376.424 324.519 351.428 319.506 323.549C314.494 295.669 320.091 266.924 335.199 242.962C350.306 219.001 373.83 201.558 401.147 194.062C428.463 186.565 457.596 189.559 482.817 202.453C508.038 215.348 527.524 237.21 537.443 263.743C537.69 264.41 537.931 265.076 538.166 265.748V265.755C539.213 268.712 540.135 271.724 540.933 274.791C543.393 284.228 544.634 293.942 544.626 303.695Z" fill="#3F3D56"/>
<path d="M417.91 226.632C412.777 223.856 407.077 222.289 401.247 222.051C395.416 221.812 389.608 222.908 384.266 225.256C379.562 227.303 374.608 230.975 373.039 237.607C379.386 233.861 387.602 239.779 389.235 249.273L388.854 249.378C387.991 255.954 389.917 263.113 393.645 267.191C393.922 265.351 394.605 263.596 395.646 262.053C396.686 260.511 398.056 259.219 399.658 258.272C402.397 256.472 405.427 255.164 407.518 252.069C409.996 248.4 410.626 243.037 411.611 238.145C412.595 233.253 414.463 227.995 417.91 226.632Z" fill="#49E1F2"/>
<path d="M382.383 282.59C380.625 285.229 378.277 286.886 376.171 288.948C373.739 291.16 372.143 294.143 371.653 297.394C371.386 299.691 371.799 302.026 371.742 304.348C371.685 306.671 370.91 309.285 369.33 309.863C366.836 310.764 364.933 306.131 362.369 305.808C360.332 305.554 358.498 308.759 359.089 311.538C359.679 314.317 362.452 315.548 364.044 313.733C365.485 316.151 364.47 320.536 362.306 321.278C362.077 322.801 361.849 324.318 361.627 325.841C356.157 322.014 350.63 318.125 345.979 312.521C340.806 306.343 337.597 298.759 336.765 290.744C336.162 284.303 337.057 276.936 334.1 271.98C331.733 268.014 327.672 267.138 324.017 267.386C323.35 267.43 322.678 267.506 322.012 267.589C324.167 261.115 326.905 254.849 330.191 248.869C330.935 248.55 331.626 248.12 332.24 247.594C335.642 244.707 337.152 238.862 339.912 234.82C340.09 234.56 340.274 234.306 340.464 234.059C343.288 230.372 347.07 228.475 350.725 226.711C358.816 222.783 367.141 218.804 375.682 219.35L373.252 219.585C370.415 227.529 367.577 235.474 364.736 243.418C364.304 244.637 363.869 245.857 363.429 247.08C361.817 251.598 360.155 256.408 360.402 261.465C360.548 264.46 361.589 267.658 363.568 268.686C365.415 269.638 367.433 268.471 369.216 267.316C369.971 266.833 370.72 266.351 371.475 265.863C374.184 264.118 377.186 262.328 380.048 263.496C382.669 264.562 384.604 268.122 384.972 271.961C385.309 275.693 384.399 279.431 382.383 282.59Z" fill="#49E1F2"/>
<path d="M398.498 336.829C390.585 331.957 382.671 327.085 374.757 322.212L374.892 321.866C369.971 323.74 367.929 332.486 368.742 339.639C369.555 346.791 372.312 353.185 373.705 360.154C375.583 369.691 374.874 379.557 371.652 388.727C382.058 377.051 391.267 364.362 399.141 350.848C400.241 349.145 401.079 347.287 401.628 345.335C402.208 343.255 402.001 341.033 401.046 339.096C400.398 338.141 399.523 337.362 398.498 336.829Z" fill="#49E1F2"/>
<path d="M367.266 248.185C366.337 250.18 366.194 252.453 366.865 254.549C367.646 256.238 369.062 257.549 370.806 258.199L375.179 260.366C376.633 261.087 378.201 261.815 379.684 261.222C381.473 260.507 382.713 257.703 382.392 255.099C382.051 252.329 380.304 250.424 378.69 248.801C376.43 246.53 374.17 244.26 371.91 241.989L370.636 243.549C369.259 244.893 368.119 246.46 367.266 248.185Z" fill="#49E1F2"/>
<path d="M521.185 277.799C523.153 278.262 525.12 278.725 527.087 279.188C526.744 285.832 523.451 291.981 519.034 294.208C517.194 295.135 515.145 295.477 513.622 297.21C512.245 298.783 511.547 301.233 510.906 303.574C509.783 307.661 508.659 311.747 507.536 315.834C506.331 320.238 504.782 325.13 501.648 326.716C498.957 328.081 495.879 326.412 493.811 323.613C491.742 320.815 490.479 317.052 489.255 313.384C489.331 317.382 487.472 321.304 484.838 322.693C482.198 324.083 478.988 322.827 477.224 319.724C475.954 317.496 475.428 314.558 474.184 312.299C472.94 310.04 470.332 308.746 468.974 310.865C468.08 312.274 468.194 314.431 467.75 316.221C467.526 317.409 466.938 318.498 466.067 319.336C465.195 320.174 464.085 320.72 462.889 320.898C461.789 320.872 460.706 320.624 459.706 320.167C458.706 319.709 457.809 319.054 457.07 318.239C453.184 314.264 450.655 309.162 449.843 303.663C449.292 301.027 449.362 298.298 450.046 295.693C450.826 293.225 452.711 291.321 454.583 291.791C455.814 289.189 453.383 285.737 451.194 286.042C448.999 286.346 447.279 288.7 445.477 290.509C443.681 292.317 441.168 293.631 439.36 291.835C439.4 292.492 439.178 293.138 438.742 293.631C438.306 294.124 437.692 294.424 437.036 294.464C436.971 294.468 436.906 294.47 436.841 294.468C435.638 294.123 434.521 293.531 433.56 292.73C429.416 290.147 424.156 291.86 421.211 296.746C423.052 288.916 425.748 279.931 431.402 278.09C433.712 277.335 436.231 277.957 438.414 276.65C442.279 274.334 443.059 265.583 439.721 261.973C440.147 265.387 440.064 269.372 438.262 271.707C436.46 274.042 432.678 272.519 432.906 269.067C432.855 269.553 432.651 270.01 432.325 270.372C431.998 270.735 431.565 270.985 431.087 271.086C430.609 271.188 430.112 271.135 429.666 270.937C429.22 270.738 428.848 270.404 428.604 269.981C427.405 268.153 427.506 265.165 428.357 262.982C429.233 261.005 430.49 259.219 432.056 257.728C435.07 254.498 438.129 251.23 441.619 249.199C445.115 247.169 449.151 246.483 452.654 248.501C454.5 249.567 456.125 251.344 458.009 252.283C458.452 252.558 458.945 252.743 459.459 252.827C459.974 252.912 460.499 252.894 461.007 252.775C461.514 252.656 461.994 252.439 462.417 252.135C462.84 251.831 463.2 251.446 463.474 251.003C463.496 250.969 463.516 250.935 463.536 250.9C464.939 248.438 464.279 244.783 464.799 241.705C465.732 236.267 471.17 233.723 474.184 237.314C471.932 236.737 469.603 239.402 469.323 242.632C469.038 245.862 470.669 249.123 472.852 250.1C476.519 251.725 480.111 247.638 482.884 243.856C485.777 239.897 488.675 235.939 491.577 231.984C492.041 231.31 492.561 230.678 493.132 230.093C494.041 229.207 495.252 228.7 496.521 228.674C497.79 228.648 499.022 229.105 499.966 229.953C502.898 232.346 504.275 237.251 506.68 240.626C510.17 245.532 515.392 246.725 520.253 247.676C523.876 248.381 527.501 249.089 531.129 249.802C533.547 254.301 535.657 258.959 537.443 263.743C530.791 266.777 525.148 271.655 521.185 277.799Z" fill="#49E1F2"/>
<path d="M540.933 274.791C540.189 276.982 539.783 279.274 539.727 281.587C536.618 277.792 536.123 270.679 538.166 265.755C539.213 268.712 540.135 271.724 540.933 274.791Z" fill="#49E1F2"/>
<path d="M532.899 354.148C530.181 359.668 527.019 364.959 523.444 369.968C521.16 368.99 518.704 370.735 516.566 372.373C514.332 374.086 511.648 375.755 509.357 374.194C507.016 372.595 506.261 368.121 507.003 364.574C507.856 361.302 509.349 358.231 511.394 355.538C513.298 352.695 515.335 349.744 517.981 348.64C520.633 347.536 524.041 349.097 524.815 352.866L526.693 352.803C525.64 351.356 526.192 348.361 527.607 347.834C529.238 347.219 530.653 349.459 531.618 351.439C532.049 352.333 532.487 353.234 532.899 354.148Z" fill="#49E1F2"/>
<path d="M460.963 327.345C456.925 327.599 453.727 322.629 451.602 317.74C449.477 312.85 447.538 307.259 443.896 304.77C441.814 303.348 439.441 303.153 437.183 302.464C435.903 302.14 434.718 301.516 433.726 300.644C432.735 299.771 431.966 298.674 431.483 297.445L428.922 296.41C425.34 298.201 422.059 300.54 419.199 303.344C415.93 306.816 413.894 311.267 413.405 316.01C412.916 321.136 414.722 326.852 418.098 328.778C420.765 330.299 423.87 329.34 426.572 330.733C429.947 332.474 431.951 337.529 432.71 342.521C433.469 347.513 433.276 352.7 433.819 357.748C434.362 362.797 435.858 368.05 438.953 370.637C442.827 373.874 448.511 371.184 450.249 365.291C451.102 362.4 451.072 359.138 451.71 356.138C452.833 350.853 455.863 346.933 458.266 342.598C460.669 338.263 462.561 332.376 460.963 327.345Z" fill="#49E1F2"/>
<path d="M421.069 275.419C421.445 275.765 421.796 276.138 422.12 276.535C422.455 277.112 422.626 277.77 422.614 278.437C422.603 279.104 422.41 279.756 422.055 280.321C422.542 280.294 423.017 280.165 423.451 279.945C423.886 279.724 424.269 279.416 424.578 279.039C425.315 278.2 425.963 277.287 426.512 276.314C426.771 275.981 426.955 275.597 427.054 275.187C427.152 274.778 427.162 274.352 427.083 273.938C426.892 273.393 426.441 273.161 426.125 272.752C425.687 271.951 425.387 271.082 425.24 270.182C425.065 269.338 424.658 268.559 424.064 267.934C423.471 267.309 422.715 266.861 421.881 266.642L422.083 266.681C421.739 266.885 421.467 267.192 421.306 267.559C421.145 267.925 421.102 268.333 421.184 268.725C421.307 269.517 421.816 270.174 421.765 270.982C421.692 272.143 420.532 272.688 420.46 273.85C420.449 274.432 420.667 274.996 421.069 275.419Z" fill="#49E1F2"/>
<path d="M414.152 255.684L414.169 255.68C414.294 255.567 414.409 255.444 414.514 255.313L414.152 255.684Z" fill="#49E1F2"/>
<path d="M415.362 261.135C415.847 260.709 416.206 260.159 416.399 259.543C416.592 258.928 416.613 258.271 416.458 257.645C416.165 256.324 415.127 255.436 414.17 255.68C413.892 255.962 413.547 256.168 413.168 256.28C412.788 256.392 412.387 256.405 412 256.319C411.409 256.167 410.759 255.774 410.245 256.22C409.952 256.553 409.746 256.954 409.647 257.387C409.457 257.971 409.267 258.554 409.077 259.137C408.987 259.346 408.964 259.578 409.01 259.8C409.046 259.89 409.105 259.968 409.18 260.028C409.256 260.088 409.346 260.128 409.441 260.143C410.581 260.479 411.721 260.815 412.861 261.151C413.254 261.332 413.681 261.424 414.114 261.422C414.546 261.419 414.972 261.321 415.362 261.135Z" fill="#49E1F2"/>
<path d="M501.434 336.392C500.907 335.53 500.38 334.667 499.853 333.804C499.336 332.805 498.628 331.916 497.77 331.188C497.584 331.032 497.369 330.915 497.138 330.842C496.907 330.769 496.663 330.743 496.422 330.764C496.18 330.785 495.945 330.854 495.73 330.966C495.516 331.078 495.325 331.232 495.169 331.418L495.142 331.451L495.206 331.944C496.617 333.457 497.579 335.333 497.983 337.362C498.103 338.244 498.061 339.157 498.167 340.042C498.178 340.453 498.27 340.857 498.437 341.233C498.605 341.608 498.845 341.946 499.143 342.228C499.973 342.783 500.947 341.965 501.538 340.968C502.066 340.149 502.303 339.176 502.21 338.205C502.079 337.554 501.815 336.937 501.434 336.392Z" fill="#49E1F2"/>
<path d="M509.702 337.515C509.802 336.708 509.737 335.888 509.509 335.106C509.471 334.049 509.752 333.005 510.314 332.108C510.872 331.263 511.295 330.335 511.568 329.359C511.683 328.914 511.662 328.445 511.508 328.013C511.333 327.621 510.911 327.442 510.668 327.752L511.187 328.086C510.487 327.961 509.767 327.996 509.082 328.188C508.691 328.338 508.342 328.579 508.065 328.893C507.787 329.206 507.589 329.581 507.487 329.987C507.401 330.62 507.261 331.244 507.068 331.853C506.759 332.489 506.16 332.7 505.784 333.258C505.527 333.753 505.398 334.304 505.407 334.861C505.416 335.419 505.564 335.965 505.837 336.451C506.309 337.246 507.061 337.837 507.945 338.109C508.578 338.336 509.412 338.348 509.702 337.515Z" fill="#49E1F2"/>
<path d="M524.425 341.958C524.654 342.553 524.961 343.116 525.337 343.632C526.042 344.342 527 343.906 527.855 343.733C528.631 343.61 529.426 343.7 530.155 343.993C530.884 344.285 531.52 344.769 531.997 345.394C531.665 343.74 530.941 342.19 529.886 340.874C528.831 339.558 527.476 338.514 525.934 337.83C523.93 337.137 521.819 336.806 519.699 336.855L519.337 336.948C520.259 339.634 523.157 339.574 524.425 341.958Z" fill="#49E1F2"/>
<path d="M462.067 347.451L462.072 347.463L462.178 347.26L462.067 347.451Z" fill="#49E1F2"/>
<path d="M459.833 351.774C459.346 352.659 458.927 353.579 458.58 354.527C458.121 356.063 457.817 357.641 457.672 359.237C457.559 360.145 457.524 361.304 458.093 361.746C458.256 361.855 458.453 361.9 458.647 361.874C458.841 361.847 459.019 361.751 459.148 361.603C459.464 361.269 459.722 360.885 459.913 360.466C461.031 358.541 461.898 356.481 462.495 354.337C463.118 352.062 462.97 349.644 462.072 347.463C461.326 348.9 460.58 350.337 459.833 351.774Z" fill="#49E1F2"/>
<path d="M438.286 236.593C438.641 236.94 439.09 237.175 439.576 237.27C440.063 237.365 440.568 237.315 441.027 237.128C441.978 236.712 442.85 236.136 443.605 235.424C444.231 234.961 444.762 234.383 445.168 233.719C445.393 233.323 445.536 232.886 445.591 232.434C445.646 231.982 445.611 231.523 445.488 231.085C445.313 230.665 445.034 230.296 444.678 230.014C444.321 229.731 443.898 229.545 443.449 229.471C442.183 229.096 440.918 228.721 439.652 228.345L440.568 227.52C439.626 227.015 438.584 227.953 437.995 229.114C437.617 229.873 437.354 230.683 437.214 231.518C437.014 232.391 437.006 233.297 437.191 234.174C437.376 235.05 437.75 235.875 438.286 236.593Z" fill="#49E1F2"/>
<path d="M460.629 229.092C460.985 229.485 461.478 229.728 462.007 229.771C462.537 229.814 463.062 229.654 463.478 229.324C463.836 229.055 464.133 228.714 464.35 228.323C464.567 227.932 464.699 227.5 464.738 227.054C464.828 226.059 464.335 224.952 463.633 224.866L463.793 223.934C462.439 223.69 460.773 223.641 460.047 225.285C459.803 225.915 459.727 226.598 459.829 227.266C459.931 227.934 460.207 228.564 460.629 229.092Z" fill="#49E1F2"/>
<path d="M327.247 328.837C325.946 327.668 324.917 326.229 324.233 324.62C323.548 323.011 323.225 321.272 323.285 319.525C323.345 317.778 323.787 316.065 324.58 314.507C325.374 312.949 326.499 311.584 327.877 310.507L314.151 270.278L335.535 275.833L345.281 313.182C346.936 315.617 347.641 318.575 347.261 321.496C346.881 324.416 345.442 327.095 343.218 329.026C340.994 330.956 338.139 332.003 335.194 331.969C332.249 331.934 329.42 330.82 327.242 328.838L327.247 328.837Z" fill="#FFB7B7"/>
<path d="M321.115 304.423L341.863 295.177L334.893 225L341.384 154.236L313.683 139.286L307.814 146.687V146.855L304.704 236.337L304.721 236.405L321.115 304.423Z" fill="#E6E7E8"/>
<path d="M638.954 513.546C627.222 508.151 614.569 501.795 600.992 494.477C530.772 456.622 444.423 397.567 357.851 328.193C271.28 258.82 194.829 187.413 142.581 127.13C117.13 97.764 98.7967 72.6149 88.0923 52.3808C76.7584 30.9593 74.4727 15.779 81.2972 7.26249C94.593 -9.32889 137.893 5.61519 171.875 21.0735L170.633 23.8044C123.966 2.57594 93.0709 -2.63216 83.6385 9.13882C71.6243 24.1306 93.9347 66.4203 144.848 125.165C196.981 185.316 273.293 256.588 359.727 325.853C446.162 395.116 532.35 454.064 602.416 491.837C670.84 528.726 716.977 541.285 728.991 526.293C738.966 513.845 725.36 482.494 690.68 438.014L693.046 436.17C718.245 468.49 745.342 510.686 731.332 528.169C724.508 536.686 709.194 537.762 685.818 531.369C672.492 527.724 656.81 521.757 638.954 513.546Z" fill="#49E1F2"/>
<path d="M189.725 311.265C157.382 296.392 127.824 281.455 101.935 266.837C68.0972 247.729 42.3804 230.201 25.4997 214.741C7.62751 198.372 0.374087 184.842 3.94084 174.528C10.8882 154.435 56.692 153.962 93.8932 157.103L93.6404 160.093C42.5539 155.779 11.705 161.253 6.77554 175.509C0.497318 193.666 35.7194 226.001 103.411 264.224C172.723 303.363 268.545 344.853 373.227 381.048C477.907 417.245 578.891 443.808 657.575 455.843C734.418 467.597 782.092 463.925 788.37 445.768C793.582 430.693 770.233 405.737 722.625 375.494L724.234 372.962C758.827 394.936 798.526 425.575 791.205 446.749C787.639 457.063 773.577 463.222 749.411 465.055C726.586 466.787 695.535 464.685 657.122 458.809C578.264 446.747 477.093 420.137 372.246 383.884C306.473 361.14 244.167 336.3 189.725 311.265Z" fill="#49E1F2"/>
<path d="M238.796 158.585C248.451 158.585 256.279 150.758 256.279 141.102C256.279 131.446 248.451 123.619 238.796 123.619C229.14 123.619 221.312 131.446 221.312 141.102C221.312 150.758 229.14 158.585 238.796 158.585Z" fill="#513DD9"/>
<path d="M583.401 371.975C589.312 371.975 594.104 367.184 594.104 361.273C594.104 355.362 589.312 350.571 583.401 350.571C577.491 350.571 572.699 355.362 572.699 361.273C572.699 367.184 577.491 371.975 583.401 371.975Z" fill="#513DD9"/>
<path d="M59.9767 465.92C69.6323 465.92 77.4598 458.093 77.4598 448.437C77.4598 438.781 69.6323 430.954 59.9767 430.954C50.3211 430.954 42.4937 438.781 42.4937 448.437C42.4937 458.093 50.3211 465.92 59.9767 465.92Z" fill="#513DD9"/>
<path d="M623.483 138.966C633.139 138.966 640.966 131.139 640.966 121.483C640.966 111.827 633.139 104 623.483 104C613.827 104 606 111.827 606 121.483C606 131.139 613.827 138.966 623.483 138.966Z" fill="#513DD9"/>
</g>
<defs>
<clipPath id="clip0_169_2">
<rect width="792.086" height="598.836" fill="white"/>
</clipPath>
</defs>
</svg>
